# Blender v2.82 (sub 7) OBJ File: ''
# www.blender.org
mtllib power_socket_modified_origin.mtl
o 3prong_socket_Feb15_2.001
v -0.030900 -0.044412 0.000000
v -0.030118 -0.044737 0.000000
v -0.021357 -0.005196 0.000000
v -0.029293 -0.044934 0.000000
v -0.028449 -0.045000 0.000000
v -0.033849 -0.039600 0.000000
v -0.033782 -0.040446 0.000000
v -0.033584 0.041268 0.000000
v -0.033782 0.040444 0.000000
v -0.007020 0.013752 0.000000
v 0.007020 -0.008712 0.000000
v 0.007020 -0.013752 0.000000
v 0.020151 -0.039600 0.000000
v 0.020085 -0.040446 0.000000
v -0.033584 -0.041269 0.000000
v -0.033260 -0.042052 0.000000
v -0.032817 -0.042775 0.000000
v -0.032267 -0.043419 0.000000
v -0.031622 -0.043969 0.000000
v -0.029293 0.044933 0.000000
v -0.030118 0.044735 0.000000
v -0.027273 -0.005196 0.000000
v -0.027273 0.005195 0.000000
v -0.033849 0.039600 0.000000
v -0.021357 0.005195 0.000000
v -0.020501 0.005124 0.000000
v -0.019669 0.004914 0.000000
v -0.018884 0.004569 0.000000
v 0.016420 0.044735 0.000000
v 0.015596 0.044933 0.000000
v 0.007020 0.013752 0.000000
v 0.014751 0.045000 0.000000
v -0.028449 0.045000 0.000000
v -0.007020 -0.013752 0.000000
v 0.014751 -0.045000 0.000000
v -0.017007 0.002841 0.000000
v -0.007020 0.008712 0.000000
v -0.017534 0.003519 0.000000
v -0.018166 0.004099 0.000000
v -0.016599 0.002087 0.000000
v -0.016320 0.001275 0.000000
v -0.016178 0.000428 0.000000
v 0.007020 0.008712 0.000000
v 0.020151 0.039600 0.000000
v 0.020085 0.040444 0.000000
v 0.019887 0.041268 0.000000
v -0.032267 0.043417 0.000000
v -0.032817 0.042773 0.000000
v -0.033260 0.042051 0.000000
v 0.019563 0.042051 0.000000
v 0.019120 0.042773 0.000000
v 0.018570 0.043417 0.000000
v -0.030900 0.044411 0.000000
v -0.031622 0.043968 0.000000
v 0.015596 -0.044934 0.000000
v 0.016420 -0.044737 0.000000
v 0.017203 -0.044412 0.000000
v -0.016178 -0.000430 0.000000
v -0.016320 -0.001277 0.000000
v -0.007020 -0.008712 0.000000
v -0.016599 -0.002088 0.000000
v -0.017007 -0.002843 0.000000
v -0.017534 -0.003519 0.000000
v 0.017925 0.043968 0.000000
v 0.017203 0.044411 0.000000
v 0.017925 -0.043969 0.000000
v 0.018570 -0.043419 0.000000
v 0.019120 -0.042775 0.000000
v -0.018166 -0.004101 0.000000
v -0.018884 -0.004571 0.000000
v -0.019669 -0.004915 0.000000
v -0.020501 -0.005126 0.000000
v 0.019563 -0.042052 0.000000
v 0.019887 -0.041269 0.000000
v 0.014751 -0.045000 -0.045000
v -0.028449 -0.045000 -0.045000
v -0.033849 -0.039600 -0.045000
v -0.033849 0.039600 -0.045000
v 0.014751 0.045000 -0.045000
v -0.028449 0.045000 -0.045000
v 0.020151 0.039600 -0.045000
v 0.020151 -0.039600 -0.045000
v -0.028449 0.036000 -0.045000
v -0.033584 0.041268 -0.045000
v -0.033260 0.042051 -0.045000
v 0.014751 0.036000 -0.045000
v -0.029293 0.044933 -0.045000
v 0.014751 0.018000 -0.045000
v 0.014751 -0.018000 -0.045000
v -0.028449 0.018000 -0.045000
v -0.028449 -0.018000 -0.045000
v -0.032817 0.042773 -0.045000
v -0.032267 0.043417 -0.045000
v -0.031622 0.043968 -0.045000
v 0.015596 0.044933 -0.045000
v 0.016420 0.044735 -0.045000
v 0.017203 0.044411 -0.045000
v 0.019120 0.042773 -0.045000
v 0.019563 0.042051 -0.045000
v 0.019887 0.041268 -0.045000
v 0.020085 0.040444 -0.045000
v 0.014751 -0.036000 -0.045000
v 0.020085 -0.040445 -0.045000
v 0.019887 -0.041269 -0.045000
v -0.030900 0.044411 -0.045000
v -0.030118 0.044735 -0.045000
v 0.017925 0.043968 -0.045000
v 0.018570 0.043417 -0.045000
v -0.028449 -0.036000 -0.045000
v -0.033782 -0.040445 -0.045000
v -0.033782 0.040444 -0.045000
v -0.029293 -0.044934 -0.045000
v -0.030118 -0.044737 -0.045000
v -0.030900 -0.044412 -0.045000
v 0.019563 -0.042052 -0.045000
v 0.019120 -0.042775 -0.045000
v 0.018570 -0.043419 -0.045000
v 0.016420 -0.044737 -0.045000
v 0.015596 -0.044934 -0.045000
v -0.031622 -0.043969 -0.045000
v -0.032267 -0.043419 -0.045000
v -0.032817 -0.042775 -0.045000
v -0.033260 -0.042052 -0.045000
v -0.033584 -0.041269 -0.045000
v 0.017925 -0.043969 -0.045000
v 0.017203 -0.044412 -0.045000
v -0.021357 -0.004860 -0.032400
v -0.021357 -0.004860 -0.000720
v -0.020557 -0.004795 -0.032400
v -0.020557 -0.004795 -0.000720
v -0.019778 -0.004598 -0.032400
v -0.019778 -0.004598 -0.000720
v -0.019044 -0.004275 -0.032400
v -0.019044 -0.004275 -0.000720
v -0.018372 -0.003836 -0.032400
v -0.018372 -0.003836 -0.000720
v -0.017781 -0.003293 -0.032400
v -0.017781 -0.003293 -0.000720
v -0.017288 -0.002659 -0.032400
v -0.017288 -0.002659 -0.000720
v -0.016906 -0.001953 -0.032400
v -0.016906 -0.001953 -0.000720
v -0.016645 -0.001194 -0.032400
v -0.016645 -0.001194 -0.000720
v -0.016513 -0.000402 -0.032400
v -0.016513 -0.000402 -0.000720
v -0.016513 0.000401 -0.032400
v -0.016513 0.000401 -0.000720
v -0.016645 0.001192 -0.032400
v -0.016645 0.001192 -0.000720
v -0.016906 0.001952 -0.032400
v -0.016906 0.001952 -0.000720
v -0.017288 0.002657 -0.032400
v -0.017288 0.002657 -0.000720
v -0.017781 0.003291 -0.032400
v -0.017781 0.003291 -0.000720
v -0.018372 0.003834 -0.032400
v -0.018372 0.003834 -0.000720
v -0.019043 0.004274 -0.032400
v -0.019044 0.004274 -0.000720
v -0.019778 0.004596 -0.032400
v -0.019778 0.004596 -0.000720
v -0.020557 0.004793 -0.032400
v -0.020557 0.004793 -0.000720
v -0.021357 0.004860 -0.032400
v -0.021357 0.004860 -0.000720
v -0.026937 -0.004860 -0.000720
v -0.026937 -0.004860 -0.032400
v -0.026937 0.004860 -0.000720
v -0.026937 0.004860 -0.032400
v 0.006300 0.013032 -0.000336
v 0.006300 0.013032 -0.032400
v 0.006300 0.009432 -0.000336
v 0.006300 0.009432 -0.032400
v -0.006300 0.009432 -0.000336
v -0.006300 0.009432 -0.032400
v -0.006300 0.013032 -0.000336
v -0.006300 0.013032 -0.032400
v -0.006300 -0.013032 -0.000336
v -0.006300 -0.013032 -0.032400
v -0.006300 -0.009432 -0.000336
v -0.006300 -0.009432 -0.032400
v 0.006300 -0.009432 -0.000336
v 0.006300 -0.009432 -0.032400
v 0.006300 -0.013032 -0.000336
v 0.006300 -0.013032 -0.032400
v -0.028449 0.018000 -0.009000
v 0.014751 0.018000 -0.009000
v 0.014751 0.036000 -0.009000
v -0.028449 0.036000 -0.009000
v -0.028449 -0.036000 -0.009000
v 0.014751 -0.036000 -0.009000
v 0.014751 -0.018000 -0.009000
v -0.028449 -0.018000 -0.009000
v -0.021357 0.005195 0.000000
v -0.027273 0.005195 0.000000
v -0.021357 -0.005196 0.000000
v -0.027273 -0.005196 0.000000
v -0.007020 -0.008712 0.000000
v -0.007020 -0.013752 0.000000
v -0.007020 0.008712 0.000000
v -0.007020 0.013752 0.000000
vn 0.0000 0.0000 1.0000
vn 0.0000 -1.0000 0.0000
vn -1.0000 0.0000 0.0000
vn 0.0000 1.0000 0.0000
vn 1.0000 0.0000 0.0000
vn 0.0000 0.0000 -1.0000
vn -0.0824 0.9966 0.0000
vn -0.0825 0.9966 -0.0000
vn -0.2452 0.9695 0.0000
vn -0.4017 0.9158 -0.0000
vn -0.4016 0.9158 0.0000
vn -0.5469 0.8372 0.0000
vn -0.6774 0.7356 0.0000
vn -0.6773 0.7357 0.0000
vn -0.7890 0.6144 -0.0000
vn -0.7891 0.6142 0.0000
vn -0.8795 0.4759 0.0000
vn -0.9458 0.3249 0.0000
vn -0.9457 0.3252 0.0000
vn -0.9458 0.3246 0.0000
vn -0.9863 0.1647 -0.0000
vn -0.9863 0.1649 0.0000
vn -0.9864 0.1644 0.0000
vn -0.9864 -0.1646 0.0000
vn -0.9459 -0.3243 -0.0000
vn -0.9458 -0.3248 0.0000
vn -0.9459 -0.3245 0.0000
vn -0.8795 -0.4759 -0.0000
vn -0.8792 -0.4764 0.0000
vn -0.8794 -0.4761 -0.0000
vn -0.7890 -0.6144 0.0000
vn -0.7891 -0.6142 -0.0000
vn -0.7891 -0.6143 0.0000
vn -0.6773 -0.7357 -0.0000
vn -0.6774 -0.7356 0.0000
vn -0.5470 -0.8371 0.0000
vn -0.5469 -0.8372 -0.0000
vn -0.4016 -0.9158 -0.0000
vn -0.4017 -0.9158 -0.0000
vn -0.2452 -0.9695 0.0000
vn -0.0835 -0.9965 0.0000
vn -0.0831 -0.9965 -0.0000
vn 0.0785 0.9969 0.0000
vn 0.0786 0.9969 -0.0000
vn 0.2336 0.9723 0.0000
vn 0.3828 0.9238 -0.0000
vn 0.3827 0.9239 0.0000
vn 0.3830 0.9238 -0.0000
vn 0.3824 0.9240 0.0000
vn 0.5226 0.8526 0.0000
vn 0.5224 0.8527 0.0000
vn 0.6495 0.7603 0.0000
vn 0.6492 0.7606 0.0000
vn 0.7604 0.6494 0.0000
vn 0.7608 0.6490 0.0000
vn 0.8526 0.5226 -0.0000
vn 0.8526 0.5225 -0.0000
vn 0.9238 0.3828 0.0000
vn 0.9240 0.3824 0.0000
vn 0.9723 0.2336 0.0000
vn 0.9969 0.0785 0.0000
vn 0.9969 0.0784 -0.0000
vn 0.9969 -0.0785 0.0000
vn 0.9969 -0.0784 0.0000
vn 0.9969 -0.0783 -0.0000
vn 0.9723 -0.2336 -0.0000
vn 0.9723 -0.2339 -0.0000
vn 0.9240 -0.3824 0.0000
vn 0.9239 -0.3827 -0.0000
vn 0.8527 -0.5225 0.0000
vn 0.7604 -0.6494 0.0000
vn 0.6495 -0.7604 0.0000
vn 0.6495 -0.7603 0.0000
vn 0.5226 -0.8526 -0.0000
vn 0.5224 -0.8527 0.0000
vn 0.5225 -0.8526 0.0000
vn 0.3829 -0.9238 -0.0000
vn 0.3828 -0.9238 0.0000
vn 0.3827 -0.9239 -0.0000
vn 0.2329 -0.9725 0.0000
vn 0.2332 -0.9724 -0.0000
vn 0.2331 -0.9725 0.0000
vn 0.0784 -0.9969 0.0000
vn 0.0783 -0.9969 -0.0000
vn -0.0780 -0.9970 0.0000
vn -0.0785 -0.9969 0.0000
vn -0.2333 -0.9724 -0.0000
vn -0.2334 -0.9724 0.0000
vn -0.3827 -0.9239 0.0000
vn -0.3828 -0.9238 0.0000
vn -0.5226 -0.8526 0.0000
vn -0.5224 -0.8527 -0.0000
vn -0.5225 -0.8526 0.0000
vn -0.6495 -0.7603 -0.0000
vn -0.6495 -0.7604 0.0000
vn -0.6492 -0.7606 0.0000
vn -0.7604 -0.6494 0.0000
vn -0.8527 -0.5225 0.0000
vn -0.8527 -0.5224 0.0000
vn -0.9239 -0.3827 0.0000
vn -0.9238 -0.3829 -0.0000
vn -0.9238 -0.3828 0.0000
vn -0.9723 -0.2336 -0.0000
vn -0.9723 -0.2339 0.0000
vn -0.9969 -0.0786 0.0000
vn -0.9969 0.0784 0.0000
vn -0.9969 0.0785 -0.0000
vn -0.9969 0.0788 0.0000
vn -0.9969 0.0783 0.0000
vn -0.9723 0.2336 0.0000
vn -0.9238 0.3828 -0.0000
vn -0.9240 0.3823 0.0000
vn -0.8527 0.5224 0.0000
vn -0.8526 0.5226 -0.0000
vn -0.7604 0.6494 0.0000
vn -0.6495 0.7603 0.0000
vn -0.5226 0.8526 -0.0000
vn -0.5224 0.8527 -0.0000
vn -0.3828 0.9238 0.0000
vn -0.2334 0.9724 0.0000
vn -0.0783 0.9969 -0.0000
vn 0.9064 0.0000 0.4225
vn 0.9062 0.0000 0.4229
vn 0.0000 -0.9064 0.4225
vn -0.0000 -0.9063 0.4225
vn 0.0000 0.9062 0.4229
vn -0.0749 0.9038 0.4214
vn -0.2226 0.8790 0.4216
vn -0.2227 0.8792 0.4212
vn -0.2225 0.8790 0.4217
vn -0.3644 0.8305 0.4214
vn -0.3643 0.8304 0.4215
vn -0.3646 0.8303 0.4216
vn -0.3643 0.8305 0.4215
vn -0.4960 0.7592 0.4215
vn -0.4957 0.7592 0.4217
vn -0.4961 0.7592 0.4213
vn -0.6142 0.6672 0.4214
vn -0.6142 0.6671 0.4216
vn -0.6142 0.6673 0.4212
vn -0.6141 0.6674 0.4213
vn -0.7156 0.5570 0.4215
vn -0.7157 0.5572 0.4210
vn -0.7157 0.5569 0.4214
vn -0.7158 0.5569 0.4212
vn -0.7975 0.4315 0.4215
vn -0.7978 0.4314 0.4213
vn -0.8577 0.2946 0.4213
vn -0.8577 0.2946 0.4214
vn -0.8577 0.2945 0.4215
vn -0.8944 0.1493 0.4215
vn -0.8944 0.1495 0.4215
vn -0.8944 0.1491 0.4217
vn -0.9067 0.0000 0.4218
vn -0.8944 -0.1492 0.4217
vn -0.8945 -0.1496 0.4214
vn -0.8943 -0.1492 0.4219
vn -0.8578 -0.2946 0.4212
vn -0.8578 -0.2943 0.4214
vn -0.8578 -0.2944 0.4213
vn -0.8577 -0.2946 0.4213
vn -0.7976 -0.4316 0.4214
vn -0.7975 -0.4318 0.4213
vn -0.7976 -0.4318 0.4213
vn -0.7157 -0.5570 0.4213
vn -0.7158 -0.5565 0.4217
vn -0.7158 -0.5567 0.4216
vn -0.6141 -0.6671 0.4216
vn -0.6141 -0.6673 0.4214
vn -0.6142 -0.6672 0.4214
vn -0.4960 -0.7594 0.4211
vn -0.4963 -0.7590 0.4213
vn -0.4963 -0.7591 0.4213
vn -0.4962 -0.7590 0.4215
vn -0.3643 -0.8305 0.4213
vn -0.3643 -0.8304 0.4215
vn -0.3646 -0.8303 0.4216
vn -0.2226 -0.8791 0.4215
vn -0.2226 -0.8790 0.4216
vn -0.2224 -0.8791 0.4216
vn -0.0748 -0.9038 0.4213
vn -0.0751 -0.9037 0.4214
vn 0.0000 0.4226 0.9063
vn 0.0000 0.4229 0.9062
vn -0.4229 0.0000 0.9062
vn -0.4226 0.0000 0.9063
vn 0.4226 -0.0000 0.9063
vn 0.4229 0.0000 0.9062
vn -0.0000 -0.4226 0.9063
vn 0.0000 -0.4229 0.9062
usemtl None.004
s 1
f 1//1 2//1 3//1
f 3//1 2//1 4//1
f 3//1 4//1 5//1
f 6//1 7//1 3//1
f 8//1 9//1 10//1
f 11//1 12//1 13//1
f 13//1 12//1 14//1
f 7//1 15//1 3//1
f 3//1 15//1 16//1
f 3//1 16//1 17//1
f 17//1 18//1 3//1
f 3//1 18//1 19//1
f 3//1 19//1 1//1
f 20//1 21//1 10//1
f 3//1 22//1 6//1
f 6//1 22//1 23//1
f 6//1 23//1 24//1
f 24//1 23//1 25//1
f 24//1 25//1 9//1
f 9//1 25//1 26//1
f 9//1 26//1 10//1
f 10//1 26//1 27//1
f 10//1 27//1 28//1
f 29//1 30//1 31//1
f 31//1 30//1 32//1
f 31//1 32//1 10//1
f 10//1 32//1 33//1
f 10//1 33//1 20//1
f 34//1 5//1 12//1
f 12//1 5//1 35//1
f 36//1 37//1 38//1
f 38//1 37//1 10//1
f 38//1 10//1 39//1
f 39//1 10//1 28//1
f 36//1 40//1 37//1
f 37//1 40//1 41//1
f 37//1 41//1 42//1
f 43//1 44//1 31//1
f 31//1 44//1 45//1
f 31//1 45//1 46//1
f 47//1 48//1 10//1
f 10//1 48//1 49//1
f 10//1 49//1 8//1
f 46//1 50//1 31//1
f 31//1 50//1 51//1
f 31//1 51//1 52//1
f 21//1 53//1 10//1
f 10//1 53//1 54//1
f 10//1 54//1 47//1
f 35//1 55//1 12//1
f 12//1 55//1 56//1
f 12//1 56//1 57//1
f 58//1 59//1 60//1
f 59//1 61//1 60//1
f 60//1 61//1 62//1
f 60//1 62//1 63//1
f 52//1 64//1 31//1
f 31//1 64//1 65//1
f 31//1 65//1 29//1
f 57//1 66//1 12//1
f 12//1 66//1 67//1
f 12//1 67//1 68//1
f 63//1 69//1 60//1
f 60//1 69//1 70//1
f 60//1 70//1 34//1
f 34//1 70//1 71//1
f 34//1 71//1 5//1
f 5//1 71//1 72//1
f 5//1 72//1 3//1
f 68//1 73//1 12//1
f 12//1 73//1 74//1
f 12//1 74//1 14//1
f 42//1 58//1 37//1
f 37//1 58//1 60//1
f 37//1 60//1 43//1
f 43//1 60//1 11//1
f 43//1 11//1 44//1
f 44//1 11//1 13//1
f 35//2 5//2 75//2
f 75//2 5//2 76//2
f 6//3 24//3 77//3
f 77//3 24//3 78//3
f 79//4 80//4 32//4
f 32//4 80//4 33//4
f 44//5 13//5 81//5
f 81//5 13//5 82//5
f 83//6 84//6 85//6
f 79//6 86//6 80//6
f 80//6 86//6 83//6
f 80//6 83//6 87//6
f 88//6 89//6 90//6
f 90//6 89//6 91//6
f 85//6 92//6 83//6
f 83//6 92//6 93//6
f 83//6 93//6 94//6
f 79//6 95//6 86//6
f 86//6 95//6 96//6
f 86//6 96//6 97//6
f 86//6 98//6 99//6
f 99//6 100//6 86//6
f 86//6 100//6 101//6
f 86//6 101//6 88//6
f 88//6 101//6 81//6
f 88//6 81//6 89//6
f 89//6 81//6 82//6
f 89//6 82//6 102//6
f 102//6 82//6 103//6
f 102//6 103//6 104//6
f 94//6 105//6 83//6
f 83//6 105//6 106//6
f 83//6 106//6 87//6
f 97//6 107//6 86//6
f 86//6 107//6 108//6
f 86//6 108//6 98//6
f 109//6 110//6 91//6
f 91//6 110//6 77//6
f 91//6 77//6 90//6
f 90//6 77//6 78//6
f 90//6 78//6 83//6
f 83//6 78//6 111//6
f 83//6 111//6 84//6
f 112//6 113//6 109//6
f 109//6 113//6 114//6
f 104//6 115//6 102//6
f 102//6 115//6 116//6
f 102//6 116//6 117//6
f 118//6 119//6 102//6
f 102//6 119//6 75//6
f 102//6 75//6 109//6
f 109//6 75//6 76//6
f 109//6 76//6 112//6
f 114//6 120//6 109//6
f 109//6 120//6 121//6
f 109//6 121//6 122//6
f 122//6 123//6 109//6
f 109//6 123//6 124//6
f 109//6 124//6 110//6
f 117//6 125//6 102//6
f 102//6 125//6 126//6
f 102//6 126//6 118//6
f 127//7 128//8 129//8
f 129//8 128//8 130//7
f 129//9 130//9 131//9
f 131//9 130//9 132//9
f 131//10 132//10 133//11
f 133//11 132//10 134//10
f 133//12 134//12 135//12
f 135//12 134//12 136//12
f 135//13 136//13 137//14
f 137//14 136//13 138//13
f 137//15 138//16 139//16
f 139//16 138//16 140//15
f 139//17 140//17 141//17
f 141//17 140//17 142//17
f 141//18 142//19 143//19
f 143//19 142//19 144//20
f 143//21 144//22 145//23
f 145//23 144//22 146//23
f 145//3 146//3 147//3
f 147//3 146//3 148//3
f 147//24 148//24 149//24
f 149//24 148//24 150//24
f 149//25 150//26 151//27
f 151//27 150//26 152//26
f 151//28 152//29 153//29
f 153//29 152//29 154//30
f 153//31 154//32 155//32
f 155//32 154//32 156//33
f 155//34 156//35 157//35
f 157//35 156//35 158//34
f 157//36 158//37 159//37
f 159//37 158//37 160//36
f 159//38 160//39 161//38
f 161//38 160//39 162//39
f 161//40 162//40 163//40
f 163//40 162//40 164//40
f 163//41 164//42 165//42
f 165//42 164//42 166//41
f 128//4 127//4 167//4
f 167//4 127//4 168//4
f 167//5 168//5 169//5
f 169//5 168//5 170//5
f 169//2 170//2 166//2
f 166//2 170//2 165//2
f 155//1 157//1 127//1
f 127//1 157//1 159//1
f 127//1 159//1 161//1
f 127//1 129//1 155//1
f 155//1 129//1 131//1
f 155//1 131//1 133//1
f 170//1 168//1 165//1
f 165//1 168//1 127//1
f 165//1 127//1 163//1
f 163//1 127//1 161//1
f 139//1 141//1 155//1
f 155//1 141//1 143//1
f 155//1 143//1 145//1
f 133//1 135//1 155//1
f 155//1 135//1 137//1
f 155//1 137//1 139//1
f 151//1 153//1 149//1
f 149//1 153//1 155//1
f 149//1 155//1 147//1
f 147//1 155//1 145//1
f 79//43 32//44 30//43
f 79//43 30//43 95//44
f 95//45 30//45 29//45
f 95//45 29//45 96//45
f 96//46 29//47 65//48
f 96//46 65//48 97//49
f 97//50 65//50 64//51
f 97//50 64//51 107//51
f 107//52 64//52 52//52
f 107//52 52//52 108//53
f 108//54 52//55 51//54
f 108//54 51//54 98//54
f 98//56 51//56 50//57
f 98//56 50//57 99//56
f 99//58 50//59 46//58
f 99//58 46//58 100//59
f 100//60 46//60 45//60
f 100//60 45//60 101//60
f 101//61 45//62 44//61
f 101//61 44//61 81//62
f 82//63 13//63 14//64
f 82//63 14//64 103//65
f 103//66 14//67 74//67
f 103//66 74//67 104//66
f 104//68 74//68 73//69
f 104//68 73//69 115//68
f 115//70 73//70 68//70
f 115//70 68//70 116//70
f 116//71 68//71 67//71
f 116//71 67//71 117//71
f 117//72 67//72 66//73
f 117//72 66//73 125//72
f 125//74 66//75 57//75
f 125//74 57//75 126//76
f 126//77 57//78 56//79
f 126//77 56//79 118//79
f 118//80 56//81 55//80
f 118//80 55//80 119//82
f 119//83 55//84 35//83
f 119//83 35//83 75//84
f 76//85 5//86 4//85
f 76//85 4//85 112//86
f 112//87 4//88 2//87
f 112//87 2//87 113//87
f 113//89 2//89 1//90
f 113//89 1//90 114//89
f 114//91 1//92 19//93
f 114//91 19//93 120//91
f 120//94 19//95 18//95
f 120//94 18//95 121//96
f 121//97 18//97 17//97
f 121//97 17//97 122//97
f 122//98 17//99 16//99
f 122//98 16//99 123//98
f 123//100 16//101 15//102
f 123//100 15//102 124//102
f 124//103 15//104 7//104
f 124//103 7//104 110//103
f 110//105 7//105 6//105
f 110//105 6//105 77//105
f 78//106 24//107 9//108
f 78//106 9//108 111//109
f 111//110 9//110 8//110
f 111//110 8//110 84//110
f 84//111 8//112 49//111
f 84//111 49//111 85//111
f 85//113 49//114 48//114
f 85//113 48//114 92//114
f 92//115 48//115 47//115
f 92//115 47//115 93//115
f 93//116 47//116 54//116
f 93//116 54//116 94//116
f 94//117 54//117 53//118
f 94//117 53//118 105//118
f 105//119 53//119 21//119
f 105//119 21//119 106//119
f 106//120 21//120 20//120
f 106//120 20//120 87//120
f 87//121 20//121 33//121
f 87//121 33//121 80//121
f 171//3 172//3 173//3
f 173//3 172//3 174//3
f 173//4 174//4 175//4
f 175//4 174//4 176//4
f 175//5 176//5 177//5
f 177//5 176//5 178//5
f 177//2 178//2 171//2
f 171//2 178//2 172//2
f 179//5 180//5 181//5
f 181//5 180//5 182//5
f 181//2 182//2 183//2
f 183//2 182//2 184//2
f 183//3 184//3 185//3
f 185//3 184//3 186//3
f 185//4 186//4 179//4
f 179//4 186//4 180//4
f 178//1 176//1 172//1
f 172//1 176//1 174//1
f 186//1 184//1 180//1
f 180//1 184//1 182//1
f 187//4 188//4 90//4
f 90//4 188//4 88//4
f 188//3 189//3 88//3
f 88//3 189//3 86//3
f 189//2 190//2 86//2
f 86//2 190//2 83//2
f 190//5 187//5 83//5
f 83//5 187//5 90//5
f 190//6 189//6 187//6
f 187//6 189//6 188//6
f 191//4 192//4 109//4
f 109//4 192//4 102//4
f 192//3 193//3 102//3
f 102//3 193//3 89//3
f 193//2 194//2 89//2
f 89//2 194//2 91//2
f 194//5 191//5 91//5
f 91//5 191//5 109//5
f 194//6 193//6 191//6
f 191//6 193//6 192//6
f 169//122 23//122 167//122
f 167//123 23//123 22//123
f 166//124 195//124 169//124
f 169//125 195//125 196//125
f 197//126 128//126 198//126
f 198//126 128//126 167//126
f 128//127 3//127 130//127
f 130//127 3//127 72//127
f 130//128 72//129 132//128
f 132//128 72//129 71//130
f 132//131 71//132 134//133
f 134//133 71//132 70//134
f 134//135 70//135 136//136
f 136//136 70//135 69//137
f 136//138 69//139 138//140
f 138//140 69//139 63//141
f 138//142 63//143 140//144
f 140//144 63//143 62//145
f 140//146 62//147 142//147
f 142//147 62//147 61//147
f 142//148 61//149 144//149
f 144//149 61//149 59//150
f 144//151 59//152 146//152
f 146//152 59//152 58//153
f 146//154 58//154 148//154
f 148//154 58//154 42//154
f 148//155 42//156 150//156
f 150//156 42//156 41//157
f 150//158 41//159 152//160
f 152//160 41//159 40//161
f 152//162 40//163 154//163
f 154//163 40//163 36//164
f 154//165 36//166 156//166
f 156//166 36//166 38//167
f 156//168 38//169 158//170
f 158//170 38//169 39//170
f 158//171 39//172 160//173
f 160//173 39//172 28//174
f 160//175 28//176 162//177
f 162//177 28//176 27//176
f 162//178 27//179 164//180
f 164//180 27//179 26//179
f 164//181 26//181 166//181
f 166//182 26//182 25//182
f 12//183 185//183 34//183
f 34//184 185//184 179//184
f 11//185 183//185 12//185
f 12//185 183//185 185//186
f 181//187 199//187 179//187
f 179//188 199//188 200//188
f 60//189 181//189 11//189
f 11//190 181//190 183//190
f 31//185 171//185 43//185
f 43//185 171//185 173//185
f 10//190 177//190 31//190
f 31//190 177//190 171//190
f 175//184 37//184 173//184
f 173//183 37//183 43//183
f 201//188 175//188 202//188
f 202//188 175//188 177//188
