# Blender v2.82 (sub 7) OBJ File: ''
# www.blender.org
mtllib USB_socket_1port_modified_origin.mtl
o USB_socket_USB_socket_Feb19
v 0.025379 -0.019402 0.009900
v 0.028643 -0.026051 0.009900
v 0.022915 -0.021332 0.009900
v 0.025758 -0.028077 0.009900
v 0.020236 -0.022951 0.009900
v 0.022674 -0.029785 0.009900
v 0.017382 -0.024236 0.009900
v 0.019426 -0.031156 0.009900
v 0.014394 -0.025167 0.009900
v 0.016051 -0.032174 0.009900
v 0.011315 -0.025731 0.009900
v 0.012586 -0.032827 0.009900
v 0.008191 -0.025920 0.009900
v 0.009072 -0.033108 0.009900
v 0.005066 -0.025731 0.009900
v -0.016045 0.009191 0.009900
v -0.021970 0.013685 0.009900
v -0.014761 0.012045 0.009900
v -0.020344 0.016814 0.009900
v -0.013141 0.014724 0.009900
v -0.018395 0.019751 0.009900
v -0.011211 0.017188 0.009900
v -0.016145 0.022465 0.009900
v -0.008998 0.019401 0.009900
v -0.013619 0.024925 0.009900
v -0.006534 0.021332 0.009900
v -0.010846 0.027102 0.009900
v -0.003855 0.022951 0.009900
v -0.007858 0.028972 0.009900
v -0.001001 0.024235 0.009900
v -0.004687 0.030514 0.009900
v 0.001987 0.025167 0.009900
v 0.034111 0.000000 0.009900
v 0.041264 -0.001763 0.009900
v 0.033922 -0.003125 0.009900
v 0.040889 -0.005268 0.009900
v 0.033357 -0.006203 0.009900
v 0.040144 -0.008714 0.009900
v 0.032426 -0.009192 0.009900
v 0.039036 -0.012061 0.009900
v 0.031142 -0.012046 0.009900
v 0.037580 -0.015272 0.009900
v 0.029522 -0.014724 0.009900
v 0.035790 -0.018309 0.009900
v 0.027592 -0.017188 0.009900
v 0.033687 -0.021139 0.009900
v 0.031296 -0.023729 0.009900
v 0.005548 -0.033015 0.009900
v 0.002054 -0.032547 0.009900
v 0.001987 -0.025167 0.009900
v -0.001371 -0.031710 0.009900
v -0.001001 -0.024236 0.009900
v -0.004687 -0.030514 0.009900
v -0.003855 -0.022951 0.009900
v -0.007858 -0.028972 0.009900
v -0.006534 -0.021332 0.009900
v -0.010846 -0.027102 0.009900
v -0.008998 -0.019402 0.009900
v -0.013619 -0.024925 0.009900
v -0.011211 -0.017188 0.009900
v -0.016145 -0.022466 0.009900
v -0.013141 -0.014724 0.009900
v -0.018395 -0.019752 0.009900
v -0.014761 -0.012046 0.009900
v 0.022915 0.021332 0.009900
v 0.028643 0.026050 0.009900
v 0.025379 0.019401 0.009900
v 0.031296 0.023729 0.009900
v 0.027592 0.017188 0.009900
v 0.033687 0.021138 0.009900
v 0.029522 0.014724 0.009900
v 0.035790 0.018309 0.009900
v 0.031142 0.012045 0.009900
v 0.037580 0.015271 0.009900
v 0.032426 0.009191 0.009900
v 0.039036 0.012061 0.009900
v 0.033357 0.006203 0.009900
v 0.040144 0.008714 0.009900
v 0.033922 0.003124 0.009900
v 0.040889 0.005268 0.009900
v 0.041264 0.001763 0.009900
v -0.001371 0.031710 0.009900
v 0.002054 0.032546 0.009900
v 0.005066 0.025731 0.009900
v 0.005548 0.033014 0.009900
v 0.008190 0.025920 0.009900
v 0.009072 0.033108 0.009900
v 0.011315 0.025731 0.009900
v 0.012586 0.032827 0.009900
v 0.014394 0.025167 0.009900
v 0.016051 0.032174 0.009900
v 0.017382 0.024235 0.009900
v 0.019426 0.031156 0.009900
v 0.020236 0.022951 0.009900
v 0.022674 0.029785 0.009900
v 0.025758 0.028077 0.009900
v -0.020344 -0.016814 0.009900
v -0.021970 -0.013686 0.009900
v -0.016045 -0.009192 0.009900
v -0.023254 -0.010402 0.009900
v -0.016976 -0.006203 0.009900
v -0.024181 -0.007001 0.009900
v -0.017541 -0.003125 0.009900
v -0.024742 -0.003521 0.009900
v -0.017729 0.000000 0.009900
v -0.024929 0.000000 0.009900
v -0.017541 0.003124 0.009900
v -0.024742 0.003520 0.009900
v -0.016976 0.006203 0.009900
v -0.024181 0.007001 0.009900
v -0.023254 0.010402 0.009900
v -0.024742 0.003520 0.014400
v -0.024181 0.007001 0.014400
v -0.023254 0.010402 0.014400
v -0.021970 0.013685 0.014400
v -0.020344 0.016814 0.014400
v -0.018395 0.019751 0.014400
v -0.016145 0.022465 0.014400
v -0.013619 0.024925 0.014400
v -0.010846 0.027102 0.014400
v -0.007858 0.028972 0.014400
v -0.004687 0.030514 0.014400
v -0.001371 0.031710 0.014400
v 0.002054 0.032546 0.014400
v 0.005548 0.033014 0.014400
v 0.009072 0.033108 0.014400
v 0.012586 0.032827 0.014400
v 0.016051 0.032174 0.014400
v 0.019426 0.031156 0.014400
v 0.022674 0.029785 0.014400
v 0.025758 0.028077 0.014400
v 0.028643 0.026050 0.014400
v 0.031296 0.023729 0.014400
v 0.033687 0.021138 0.014400
v 0.035790 0.018309 0.014400
v 0.037580 0.015271 0.014400
v 0.039036 0.012061 0.014400
v 0.040144 0.008714 0.014400
v 0.040889 0.005268 0.014400
v 0.041264 0.001763 0.014400
v 0.041264 -0.001763 0.014400
v 0.040889 -0.005268 0.014400
v 0.040144 -0.008714 0.014400
v 0.039036 -0.012061 0.014400
v 0.037580 -0.015272 0.014400
v 0.035790 -0.018309 0.014400
v 0.033687 -0.021139 0.014400
v 0.031296 -0.023729 0.014400
v 0.028643 -0.026051 0.014400
v 0.025758 -0.028077 0.014400
v 0.022674 -0.029785 0.014400
v 0.019426 -0.031156 0.014400
v 0.016051 -0.032174 0.014400
v 0.012586 -0.032827 0.014400
v 0.009072 -0.033108 0.014400
v 0.005548 -0.033015 0.014400
v 0.002054 -0.032547 0.014400
v -0.001371 -0.031710 0.014400
v -0.004687 -0.030514 0.014400
v -0.007858 -0.028972 0.014400
v -0.010846 -0.027102 0.014400
v -0.013619 -0.024925 0.014400
v -0.016145 -0.022466 0.014400
v -0.018395 -0.019752 0.014400
v -0.020344 -0.016814 0.014400
v -0.021970 -0.013686 0.014400
v -0.023254 -0.010402 0.014400
v -0.024181 -0.007001 0.014400
v -0.024742 -0.003521 0.014400
v -0.024929 0.000000 0.014400
v 0.029409 0.019474 0.014400
v 0.027051 0.021765 0.014400
v 0.024446 0.023773 0.014400
v 0.021631 0.025471 0.014400
v 0.018639 0.026837 0.014400
v 0.015512 0.027854 0.014400
v 0.012289 0.028507 0.014400
v 0.009013 0.028788 0.014400
v 0.005726 0.028694 0.014400
v 0.002471 0.028226 0.014400
v -0.000709 0.027390 0.014400
v -0.003773 0.026197 0.014400
v -0.006682 0.024663 0.014400
v -0.009396 0.022807 0.014400
v -0.011881 0.020653 0.014400
v 0.027051 -0.021766 0.014400
v 0.029409 -0.019474 0.014400
v 0.031490 -0.016928 0.014400
v 0.033268 -0.014162 0.014400
v 0.034719 -0.011211 0.014400
v 0.035824 -0.008114 0.014400
v 0.036569 -0.004911 0.014400
v 0.036944 -0.001644 0.014400
v 0.036944 0.001644 0.014400
v 0.036569 0.004911 0.014400
v 0.035824 0.008114 0.014400
v 0.034719 0.011211 0.014400
v 0.033268 0.014162 0.014400
v 0.031490 0.016928 0.014400
v -0.014105 0.018231 0.014400
v -0.016038 0.015570 0.014400
v -0.017655 0.012707 0.014400
v -0.018935 0.009678 0.014400
v -0.019861 0.006523 0.014400
v -0.020422 0.003283 0.014400
v -0.020609 0.000000 0.014400
v -0.020422 -0.003283 0.014400
v -0.019861 -0.006523 0.014400
v -0.018935 -0.009678 0.014400
v -0.017655 -0.012707 0.014400
v -0.016038 -0.015571 0.014400
v -0.014105 -0.018231 0.014400
v -0.011881 -0.020654 0.014400
v -0.009396 -0.022807 0.014400
v -0.006682 -0.024663 0.014400
v -0.003773 -0.026198 0.014400
v -0.000709 -0.027391 0.014400
v 0.002471 -0.028227 0.014400
v 0.005726 -0.028695 0.014400
v 0.009013 -0.028788 0.014400
v 0.012289 -0.028507 0.014400
v 0.015512 -0.027854 0.014400
v 0.018639 -0.026838 0.014400
v 0.021631 -0.025472 0.014400
v 0.024446 -0.023774 0.014400
v -0.020422 0.003283 0.018000
v -0.019861 0.006523 0.018000
v -0.018935 0.009678 0.018000
v -0.017655 0.012707 0.018000
v -0.016038 0.015570 0.018000
v -0.014105 0.018231 0.018000
v -0.011881 0.020653 0.018000
v -0.009396 0.022807 0.018000
v -0.006682 0.024663 0.018000
v -0.003773 0.026197 0.018000
v -0.000709 0.027390 0.018000
v 0.002471 0.028226 0.018000
v 0.005726 0.028694 0.018000
v 0.009013 0.028788 0.018000
v 0.012289 0.028507 0.018000
v 0.015512 0.027854 0.018000
v 0.018639 0.026837 0.018000
v 0.021631 0.025471 0.018000
v 0.024446 0.023773 0.018000
v 0.027051 0.021765 0.018000
v 0.029409 0.019474 0.018000
v 0.031490 0.016928 0.018000
v 0.033268 0.014162 0.018000
v 0.034719 0.011211 0.018000
v 0.035824 0.008114 0.018000
v 0.036569 0.004911 0.018000
v 0.036944 0.001644 0.018000
v 0.036944 -0.001644 0.018000
v 0.036569 -0.004911 0.018000
v 0.035824 -0.008114 0.018000
v 0.034719 -0.011211 0.018000
v 0.033268 -0.014162 0.018000
v 0.031490 -0.016928 0.018000
v 0.029409 -0.019474 0.018000
v 0.027051 -0.021766 0.018000
v 0.024446 -0.023774 0.018000
v 0.021631 -0.025472 0.018000
v 0.018639 -0.026838 0.018000
v 0.015512 -0.027854 0.018000
v 0.012289 -0.028507 0.018000
v 0.009013 -0.028788 0.018000
v 0.005726 -0.028695 0.018000
v 0.002471 -0.028227 0.018000
v -0.000709 -0.027391 0.018000
v -0.003773 -0.026198 0.018000
v -0.006682 -0.024663 0.018000
v -0.009396 -0.022807 0.018000
v -0.011881 -0.020654 0.018000
v -0.014105 -0.018231 0.018000
v -0.016038 -0.015571 0.018000
v -0.017655 -0.012707 0.018000
v -0.018935 -0.009678 0.018000
v -0.019861 -0.006523 0.018000
v -0.020422 -0.003283 0.018000
v -0.020609 0.000000 0.018000
v 0.004591 0.011700 0.018000
v 0.004591 -0.011700 0.018000
v -0.004589 0.011700 0.018000
v -0.004589 -0.011700 0.018000
v -0.017730 0.000000 -0.019260
v -0.017541 0.003124 -0.019260
v 0.008190 0.000000 -0.019260
v -0.016045 -0.009192 -0.019260
v -0.016976 -0.006203 -0.019260
v -0.017541 -0.003125 -0.019260
v -0.011211 -0.017188 -0.019260
v -0.013141 -0.014724 -0.019260
v -0.014761 -0.012046 -0.019260
v -0.003855 -0.022951 -0.019260
v -0.006534 -0.021332 -0.019260
v -0.008998 -0.019402 -0.019260
v 0.005066 -0.025731 -0.019260
v 0.001987 -0.025167 -0.019260
v -0.001001 -0.024236 -0.019260
v 0.014393 -0.025167 -0.019260
v 0.011315 -0.025731 -0.019260
v 0.008190 -0.025920 -0.019260
v 0.022915 -0.021332 -0.019260
v 0.020236 -0.022951 -0.019260
v 0.017382 -0.024236 -0.019260
v 0.029522 -0.014724 -0.019260
v 0.027592 -0.017188 -0.019260
v 0.025379 -0.019402 -0.019260
v 0.033357 -0.006203 -0.019260
v 0.032426 -0.009192 -0.019260
v 0.031141 -0.012046 -0.019260
v 0.033921 0.003124 -0.019260
v 0.034110 0.000000 -0.019260
v 0.033921 -0.003125 -0.019260
v 0.031141 0.012045 -0.019260
v 0.032426 0.009191 -0.019260
v 0.033357 0.006203 -0.019260
v 0.025379 0.019401 -0.019260
v 0.027592 0.017188 -0.019260
v 0.029522 0.014724 -0.019260
v 0.017382 0.024235 -0.019260
v 0.020236 0.022951 -0.019260
v 0.022915 0.021332 -0.019260
v 0.008190 0.025920 -0.019260
v 0.011315 0.025731 -0.019260
v 0.014393 0.025167 -0.019260
v -0.001001 0.024235 -0.019260
v 0.001987 0.025167 -0.019260
v 0.005066 0.025731 -0.019260
v -0.008998 0.019401 -0.019260
v -0.006534 0.021332 -0.019260
v -0.003855 0.022951 -0.019260
v -0.014761 0.012045 -0.019260
v -0.013141 0.014724 -0.019260
v -0.011211 0.017188 -0.019260
v -0.016976 0.006203 -0.019260
v -0.016045 0.009191 -0.019260
v -0.004590 0.011700 0.000000
v 0.004590 0.011700 0.000000
v 0.004590 -0.011700 0.000000
v -0.004590 -0.011700 0.000000
v -0.002070 0.008820 0.000000
v -0.002070 -0.008820 0.000000
v -0.000090 -0.008820 0.000000
v -0.000090 0.008820 0.000000
v -0.000089 -0.008820 0.016200
v -0.002069 -0.008820 0.016200
v -0.002069 0.008820 0.016200
v -0.000089 0.008820 0.016200
vn 0.0000 0.0000 -1.0000
vn -0.9986 0.0530 0.0000
vn -0.9873 0.1591 0.0000
vn -0.9648 0.2630 0.0000
vn -0.9313 0.3642 0.0000
vn -0.8873 0.4611 0.0000
vn -0.8332 0.5529 0.0000
vn -0.8336 0.5524 0.0000
vn -0.7698 0.6382 0.0000
vn -0.6977 0.7164 0.0000
vn -0.6175 0.7866 0.0000
vn -0.5305 0.8477 0.0000
vn -0.4373 0.8993 0.0000
vn -0.3393 0.9407 0.0000
vn -0.2371 0.9715 0.0000
vn -0.1328 0.9911 0.0000
vn -0.0267 0.9996 0.0000
vn 0.0797 0.9968 0.0000
vn 0.1852 0.9827 0.0000
vn 0.2888 0.9574 0.0000
vn 0.3889 0.9213 0.0000
vn 0.4845 0.8748 0.0000
vn 0.5749 0.8182 0.0000
vn 0.6584 0.7526 0.0000
vn 0.7349 0.6782 0.0000
vn 0.7346 0.6785 0.0000
vn 0.8025 0.5966 0.0000
vn 0.8616 0.5076 0.0000
vn 0.9107 0.4131 0.0000
vn 0.9493 0.3143 0.0000
vn 0.9774 0.2113 0.0000
vn 0.9943 0.1064 0.0000
vn 1.0000 0.0000 0.0000
vn 0.9943 -0.1064 0.0000
vn 0.9774 -0.2113 0.0000
vn 0.9493 -0.3143 0.0000
vn 0.9107 -0.4130 0.0000
vn 0.9105 -0.4134 0.0000
vn 0.8615 -0.5078 0.0000
vn 0.8026 -0.5965 0.0000
vn 0.7348 -0.6783 0.0000
vn 0.6582 -0.7529 -0.0000
vn 0.6586 -0.7525 0.0000
vn 0.5747 -0.8184 0.0000
vn 0.4845 -0.8748 0.0000
vn 0.3889 -0.9213 0.0000
vn 0.2888 -0.9574 0.0000
vn 0.1852 -0.9827 0.0000
vn 0.1855 -0.9826 -0.0000
vn 0.0797 -0.9968 0.0000
vn -0.0264 -0.9997 0.0000
vn -0.1328 -0.9911 0.0000
vn -0.2374 -0.9714 0.0000
vn -0.3393 -0.9407 0.0000
vn -0.4373 -0.8993 0.0000
vn -0.5305 -0.8477 0.0000
vn -0.6175 -0.7866 0.0000
vn -0.6975 -0.7165 0.0000
vn -0.7698 -0.6382 0.0000
vn -0.8333 -0.5528 0.0000
vn -0.8873 -0.4612 0.0000
vn -0.9313 -0.3641 0.0000
vn -0.9648 -0.2630 0.0000
vn -0.9873 -0.1592 0.0000
vn -0.9986 -0.0530 0.0000
vn -0.9986 -0.0534 -0.0000
vn 0.0000 0.0000 1.0000
vn -0.9984 0.0573 -0.0000
vn -0.9984 0.0569 0.0000
vn -0.9854 0.1703 0.0000
vn -0.9854 0.1701 -0.0000
vn -0.9853 0.1706 0.0000
vn -0.9595 0.2816 0.0000
vn -0.9211 0.3893 0.0000
vn -0.8707 0.4918 0.0000
vn -0.8091 0.5877 0.0000
vn -0.7369 0.6760 0.0000
vn -0.7366 0.6764 0.0000
vn -0.6550 0.7556 0.0000
vn -0.5645 0.8254 0.0000
vn -0.4664 0.8845 0.0000
vn -0.3628 0.9319 0.0000
vn -0.2543 0.9671 0.0000
vn -0.1423 0.9898 0.0000
vn -0.0286 0.9996 0.0000
vn 0.0855 0.9963 0.0000
vn 0.1986 0.9801 0.0000
vn 0.3093 0.9510 0.0000
vn 0.3090 0.9511 0.0000
vn 0.4153 0.9097 0.0000
vn 0.5165 0.8563 0.0000
vn 0.6105 0.7920 0.0000
vn 0.6968 0.7172 0.0000
vn 0.7743 0.6329 0.0000
vn 0.8415 0.5402 -0.0000
vn 0.8416 0.5402 0.0000
vn 0.8415 0.5403 -0.0000
vn 0.8974 0.4412 0.0000
vn 0.9418 0.3360 0.0000
vn 0.9740 0.2265 0.0000
vn 0.9935 0.1140 0.0000
vn 0.9935 -0.1140 0.0000
vn 0.9740 -0.2265 0.0000
vn 0.9418 -0.3360 0.0000
vn 0.8974 -0.4412 0.0000
vn 0.8415 -0.5403 0.0000
vn 0.8412 -0.5407 0.0000
vn 0.8415 -0.5402 0.0000
vn 0.7743 -0.6329 0.0000
vn 0.6970 -0.7171 0.0000
vn 0.6105 -0.7920 0.0000
vn 0.5165 -0.8563 0.0000
vn 0.4153 -0.9097 0.0000
vn 0.3090 -0.9511 0.0000
vn 0.1986 -0.9801 0.0000
vn 0.0855 -0.9963 0.0000
vn -0.0286 -0.9996 -0.0000
vn -0.1423 -0.9898 0.0000
vn -0.2543 -0.9671 0.0000
vn -0.3628 -0.9319 0.0000
vn -0.4667 -0.8844 0.0000
vn -0.5645 -0.8254 0.0000
vn -0.6548 -0.7558 0.0000
vn -0.7367 -0.6762 0.0000
vn -0.8090 -0.5879 0.0000
vn -0.8708 -0.4916 0.0000
vn -0.9211 -0.3893 0.0000
vn -0.9595 -0.2816 0.0000
vn -0.9854 -0.1703 -0.0000
vn -0.9853 -0.1706 0.0000
vn -0.9984 -0.0569 0.0000
vn -0.9982 0.0604 0.0000
vn -0.9982 0.0601 0.0000
vn -0.9836 0.1805 0.0000
vn -0.9547 0.2975 0.0000
vn -0.9120 0.4103 0.0000
vn -0.9118 0.4106 0.0000
vn -0.8557 0.5175 0.0000
vn -0.8561 0.5169 0.0000
vn -0.7872 0.6166 0.0000
vn -0.7071 0.7071 0.0000
vn -0.6168 0.7871 0.0000
vn -0.5172 0.8559 0.0000
vn -0.4107 0.9118 0.0000
vn -0.4103 0.9120 0.0000
vn -0.4106 0.9118 0.0000
vn -0.2978 0.9546 0.0000
vn -0.1802 0.9836 0.0000
vn -0.0604 0.9982 0.0000
vn 0.0604 0.9982 0.0000
vn 0.1802 0.9836 -0.0000
vn 0.2977 0.9547 -0.0000
vn 0.2978 0.9546 -0.0000
vn 0.4107 0.9118 -0.0000
vn 0.4106 0.9118 0.0000
vn 0.4103 0.9120 0.0000
vn 0.5172 0.8559 0.0000
vn 0.6166 0.7873 0.0000
vn 0.6168 0.7871 0.0000
vn 0.7071 0.7071 0.0000
vn 0.7872 0.6166 0.0000
vn 0.8558 0.5172 -0.0000
vn 0.8557 0.5175 0.0000
vn 0.8557 0.5174 -0.0000
vn 0.8559 0.5172 -0.0000
vn 0.9120 0.4101 0.0000
vn 0.9118 0.4107 0.0000
vn 0.9119 0.4103 -0.0000
vn 0.9547 0.2975 0.0000
vn 0.9836 0.1802 -0.0000
vn 0.9836 0.1805 0.0000
vn 0.9982 0.0604 -0.0000
vn 0.9982 -0.0604 -0.0000
vn 0.9836 -0.1803 -0.0000
vn 0.9836 -0.1805 -0.0000
vn 0.9836 -0.1802 0.0000
vn 0.9548 -0.2974 0.0000
vn 0.9120 -0.4101 0.0001
vn 0.9120 -0.4103 0.0000
vn 0.9119 -0.4103 -0.0000
vn 0.8558 -0.5174 -0.0000
vn 0.8556 -0.5176 -0.0000
vn 0.8560 -0.5170 0.0000
vn 0.7872 -0.6166 0.0000
vn 0.7073 -0.7069 0.0000
vn 0.6166 -0.7872 0.0000
vn 0.5172 -0.8559 0.0000
vn 0.4101 -0.9120 -0.0000
vn 0.4106 -0.9118 0.0000
vn 0.2974 -0.9548 -0.0000
vn 0.2975 -0.9547 0.0000
vn 0.2978 -0.9546 0.0000
vn 0.1802 -0.9836 -0.0000
vn 0.0604 -0.9982 -0.0000
vn -0.0604 -0.9982 0.0000
vn -0.1802 -0.9836 0.0000
vn -0.2975 -0.9547 0.0000
vn -0.4101 -0.9120 0.0000
vn -0.4106 -0.9118 0.0000
vn -0.5172 -0.8559 0.0000
vn -0.6166 -0.7872 0.0000
vn -0.7073 -0.7069 0.0000
vn -0.7872 -0.6166 0.0000
vn -0.8556 -0.5176 0.0000
vn -0.9118 -0.4106 0.0000
vn -0.9120 -0.4103 0.0000
vn -0.9118 -0.4107 0.0000
vn -0.9548 -0.2974 0.0000
vn -0.9546 -0.2978 0.0000
vn -0.9836 -0.1805 0.0000
vn -0.9982 -0.0603 0.0000
vn -0.9982 -0.0601 0.0000
vn -0.9982 -0.0604 -0.0000
vn 0.0000 -1.0000 0.0000
vn -1.0000 0.0000 0.0001
vn 0.0000 1.0000 0.0000
vn 1.0000 0.0000 -0.0001
usemtl None.001
s 1
f 1//1 2//1 3//1
f 3//1 2//1 4//1
f 3//1 4//1 5//1
f 5//1 4//1 6//1
f 5//1 6//1 7//1
f 7//1 6//1 8//1
f 7//1 8//1 9//1
f 9//1 8//1 10//1
f 9//1 10//1 11//1
f 11//1 10//1 12//1
f 11//1 12//1 13//1
f 13//1 12//1 14//1
f 13//1 14//1 15//1
f 16//1 17//1 18//1
f 18//1 17//1 19//1
f 18//1 19//1 20//1
f 20//1 19//1 21//1
f 20//1 21//1 22//1
f 22//1 21//1 23//1
f 22//1 23//1 24//1
f 24//1 23//1 25//1
f 24//1 25//1 26//1
f 26//1 25//1 27//1
f 26//1 27//1 28//1
f 28//1 27//1 29//1
f 28//1 29//1 30//1
f 30//1 29//1 31//1
f 30//1 31//1 32//1
f 33//1 34//1 35//1
f 35//1 34//1 36//1
f 35//1 36//1 37//1
f 37//1 36//1 38//1
f 37//1 38//1 39//1
f 39//1 38//1 40//1
f 39//1 40//1 41//1
f 41//1 40//1 42//1
f 41//1 42//1 43//1
f 43//1 42//1 44//1
f 43//1 44//1 45//1
f 45//1 44//1 46//1
f 45//1 46//1 1//1
f 1//1 46//1 47//1
f 1//1 47//1 2//1
f 14//1 48//1 15//1
f 15//1 48//1 49//1
f 15//1 49//1 50//1
f 50//1 49//1 51//1
f 50//1 51//1 52//1
f 52//1 51//1 53//1
f 52//1 53//1 54//1
f 54//1 53//1 55//1
f 54//1 55//1 56//1
f 56//1 55//1 57//1
f 56//1 57//1 58//1
f 58//1 57//1 59//1
f 58//1 59//1 60//1
f 60//1 59//1 61//1
f 60//1 61//1 62//1
f 62//1 61//1 63//1
f 62//1 63//1 64//1
f 65//1 66//1 67//1
f 67//1 66//1 68//1
f 67//1 68//1 69//1
f 69//1 68//1 70//1
f 69//1 70//1 71//1
f 71//1 70//1 72//1
f 71//1 72//1 73//1
f 73//1 72//1 74//1
f 73//1 74//1 75//1
f 75//1 74//1 76//1
f 75//1 76//1 77//1
f 77//1 76//1 78//1
f 77//1 78//1 79//1
f 79//1 78//1 80//1
f 79//1 80//1 33//1
f 33//1 80//1 81//1
f 33//1 81//1 34//1
f 31//1 82//1 32//1
f 32//1 82//1 83//1
f 32//1 83//1 84//1
f 84//1 83//1 85//1
f 84//1 85//1 86//1
f 86//1 85//1 87//1
f 86//1 87//1 88//1
f 88//1 87//1 89//1
f 88//1 89//1 90//1
f 90//1 89//1 91//1
f 90//1 91//1 92//1
f 92//1 91//1 93//1
f 92//1 93//1 94//1
f 94//1 93//1 95//1
f 94//1 95//1 65//1
f 65//1 95//1 96//1
f 65//1 96//1 66//1
f 63//1 97//1 64//1
f 64//1 97//1 98//1
f 64//1 98//1 99//1
f 99//1 98//1 100//1
f 99//1 100//1 101//1
f 101//1 100//1 102//1
f 101//1 102//1 103//1
f 103//1 102//1 104//1
f 103//1 104//1 105//1
f 105//1 104//1 106//1
f 105//1 106//1 107//1
f 107//1 106//1 108//1
f 107//1 108//1 109//1
f 109//1 108//1 110//1
f 109//1 110//1 16//1
f 16//1 110//1 111//1
f 16//1 111//1 17//1
f 106//2 112//2 108//2
f 108//3 112//3 113//3
f 108//3 113//3 110//3
f 110//4 113//4 114//4
f 110//4 114//4 111//4
f 111//5 114//5 115//5
f 111//5 115//5 17//5
f 17//6 115//6 116//6
f 17//6 116//6 19//6
f 19//7 116//7 117//7
f 19//7 117//7 21//8
f 21//9 117//9 118//9
f 21//9 118//9 23//9
f 23//10 118//10 119//10
f 23//10 119//10 25//10
f 25//11 119//11 120//11
f 25//11 120//11 27//11
f 27//12 120//12 121//12
f 27//12 121//12 29//12
f 29//13 121//13 122//13
f 29//13 122//13 31//13
f 31//14 122//14 123//14
f 31//14 123//14 82//14
f 82//15 123//15 124//15
f 82//15 124//15 83//15
f 83//16 124//16 125//16
f 83//16 125//16 85//16
f 85//17 125//17 126//17
f 85//17 126//17 87//17
f 87//18 126//18 127//18
f 87//18 127//18 89//18
f 89//19 127//19 128//19
f 89//19 128//19 91//19
f 91//20 128//20 129//20
f 91//20 129//20 93//20
f 93//21 129//21 130//21
f 93//21 130//21 95//21
f 95//22 130//22 131//22
f 95//22 131//22 96//22
f 96//23 131//23 132//23
f 96//23 132//23 66//23
f 66//24 132//24 133//24
f 66//24 133//24 68//24
f 68//25 133//25 134//25
f 68//25 134//25 70//26
f 70//27 134//27 135//27
f 70//27 135//27 72//27
f 72//28 135//28 136//28
f 72//28 136//28 74//28
f 74//29 136//29 137//29
f 74//29 137//29 76//29
f 76//30 137//30 138//30
f 76//30 138//30 78//30
f 78//31 138//31 139//31
f 78//31 139//31 80//31
f 80//32 139//32 140//32
f 80//32 140//32 81//32
f 81//33 140//33 141//33
f 81//33 141//33 34//33
f 34//34 141//34 142//34
f 34//34 142//34 36//34
f 36//35 142//35 143//35
f 36//35 143//35 38//35
f 38//36 143//36 144//36
f 38//36 144//36 40//36
f 40//37 144//38 145//37
f 40//37 145//37 42//37
f 42//39 145//39 146//39
f 42//39 146//39 44//39
f 44//40 146//40 147//40
f 44//40 147//40 46//40
f 46//41 147//41 148//41
f 46//41 148//41 47//41
f 47//42 148//43 149//43
f 47//42 149//43 2//43
f 2//44 149//44 150//44
f 2//44 150//44 4//44
f 4//45 150//45 151//45
f 4//45 151//45 6//45
f 6//46 151//46 152//46
f 6//46 152//46 8//46
f 8//47 152//47 153//47
f 8//47 153//47 10//47
f 10//48 153//49 154//48
f 10//48 154//48 12//48
f 12//50 154//50 155//50
f 12//50 155//50 14//50
f 14//51 155//51 156//51
f 14//51 156//51 48//51
f 48//52 156//52 157//52
f 48//52 157//52 49//52
f 49//53 157//53 158//53
f 49//53 158//53 51//53
f 51//54 158//54 159//54
f 51//54 159//54 53//54
f 53//55 159//55 160//55
f 53//55 160//55 55//55
f 55//56 160//56 161//56
f 55//56 161//56 57//56
f 57//57 161//57 162//57
f 57//57 162//57 59//57
f 59//58 162//58 163//58
f 59//58 163//58 61//58
f 61//59 163//59 164//59
f 61//59 164//59 63//59
f 63//60 164//60 165//60
f 63//60 165//60 97//60
f 97//61 165//61 166//61
f 97//61 166//61 98//61
f 98//62 166//62 167//62
f 98//62 167//62 100//62
f 100//63 167//63 168//63
f 100//63 168//63 102//63
f 102//64 168//64 169//64
f 102//64 169//64 104//64
f 104//65 169//66 170//65
f 104//65 170//65 106//65
f 106//2 170//2 112//2
f 171//67 133//67 172//67
f 172//67 133//67 132//67
f 172//67 132//67 173//67
f 173//67 132//67 131//67
f 173//67 131//67 174//67
f 174//67 131//67 130//67
f 174//67 130//67 175//67
f 175//67 130//67 129//67
f 175//67 129//67 176//67
f 176//67 129//67 128//67
f 176//67 128//67 177//67
f 177//67 128//67 127//67
f 177//67 127//67 178//67
f 178//67 127//67 126//67
f 178//67 126//67 179//67
f 179//67 126//67 125//67
f 179//67 125//67 180//67
f 180//67 125//67 124//67
f 180//67 124//67 181//67
f 181//67 124//67 123//67
f 181//67 123//67 182//67
f 182//67 123//67 122//67
f 182//67 122//67 183//67
f 183//67 122//67 121//67
f 183//67 121//67 184//67
f 184//67 121//67 120//67
f 184//67 120//67 185//67
f 186//67 148//67 187//67
f 187//67 148//67 147//67
f 187//67 147//67 188//67
f 188//67 147//67 146//67
f 188//67 146//67 189//67
f 189//67 146//67 145//67
f 189//67 145//67 190//67
f 190//67 145//67 144//67
f 190//67 144//67 191//67
f 191//67 144//67 143//67
f 191//67 143//67 192//67
f 192//67 143//67 142//67
f 192//67 142//67 193//67
f 193//67 142//67 141//67
f 193//67 141//67 194//67
f 194//67 141//67 140//67
f 194//67 140//67 195//67
f 195//67 140//67 139//67
f 195//67 139//67 196//67
f 196//67 139//67 138//67
f 196//67 138//67 197//67
f 197//67 138//67 137//67
f 197//67 137//67 198//67
f 198//67 137//67 136//67
f 198//67 136//67 199//67
f 199//67 136//67 135//67
f 199//67 135//67 171//67
f 171//67 135//67 134//67
f 171//67 134//67 133//67
f 120//67 119//67 185//67
f 185//67 119//67 118//67
f 185//67 118//67 200//67
f 200//67 118//67 117//67
f 200//67 117//67 201//67
f 201//67 117//67 116//67
f 201//67 116//67 202//67
f 202//67 116//67 115//67
f 202//67 115//67 203//67
f 203//67 115//67 114//67
f 203//67 114//67 204//67
f 204//67 114//67 113//67
f 204//67 113//67 205//67
f 205//67 113//67 112//67
f 205//67 112//67 206//67
f 206//67 112//67 170//67
f 206//67 170//67 207//67
f 207//67 170//67 169//67
f 207//67 169//67 208//67
f 208//67 169//67 168//67
f 208//67 168//67 209//67
f 209//67 168//67 167//67
f 209//67 167//67 210//67
f 210//67 167//67 166//67
f 210//67 166//67 211//67
f 211//67 166//67 165//67
f 211//67 165//67 212//67
f 165//67 164//67 212//67
f 212//67 164//67 163//67
f 212//67 163//67 213//67
f 213//67 163//67 162//67
f 213//67 162//67 214//67
f 214//67 162//67 161//67
f 214//67 161//67 215//67
f 215//67 161//67 160//67
f 215//67 160//67 216//67
f 216//67 160//67 159//67
f 216//67 159//67 217//67
f 217//67 159//67 158//67
f 217//67 158//67 218//67
f 218//67 158//67 157//67
f 218//67 157//67 219//67
f 219//67 157//67 156//67
f 219//67 156//67 220//67
f 220//67 156//67 155//67
f 220//67 155//67 221//67
f 221//67 155//67 154//67
f 221//67 154//67 222//67
f 222//67 154//67 153//67
f 222//67 153//67 223//67
f 223//67 153//67 152//67
f 223//67 152//67 224//67
f 224//67 152//67 151//67
f 224//67 151//67 225//67
f 225//67 151//67 150//67
f 225//67 150//67 186//67
f 186//67 150//67 149//67
f 186//67 149//67 148//67
f 206//68 226//68 205//69
f 205//70 226//71 227//70
f 205//70 227//70 204//72
f 204//73 227//73 228//73
f 204//73 228//73 203//73
f 203//74 228//74 229//74
f 203//74 229//74 202//74
f 202//75 229//75 230//75
f 202//75 230//75 201//75
f 201//76 230//76 231//76
f 201//76 231//76 200//76
f 200//77 231//78 232//78
f 200//77 232//78 185//78
f 185//79 232//79 233//79
f 185//79 233//79 184//79
f 184//80 233//80 234//80
f 184//80 234//80 183//80
f 183//81 234//81 235//81
f 183//81 235//81 182//81
f 182//82 235//82 236//82
f 182//82 236//82 181//82
f 181//83 236//83 237//83
f 181//83 237//83 180//83
f 180//84 237//84 238//84
f 180//84 238//84 179//84
f 179//85 238//85 239//85
f 179//85 239//85 178//85
f 178//86 239//86 240//86
f 178//86 240//86 177//86
f 177//87 240//87 241//87
f 177//87 241//87 176//87
f 176//88 241//88 242//88
f 176//88 242//88 175//89
f 175//90 242//90 243//90
f 175//90 243//90 174//90
f 174//91 243//91 244//91
f 174//91 244//91 173//91
f 173//92 244//92 245//92
f 173//92 245//92 172//92
f 172//93 245//93 246//93
f 172//93 246//93 171//93
f 171//94 246//94 247//94
f 171//94 247//94 199//94
f 199//95 247//96 248//97
f 199//95 248//97 198//96
f 198//98 248//98 249//98
f 198//98 249//98 197//98
f 197//99 249//99 250//99
f 197//99 250//99 196//99
f 196//100 250//100 251//100
f 196//100 251//100 195//100
f 195//101 251//101 252//101
f 195//101 252//101 194//101
f 194//33 252//33 253//33
f 194//33 253//33 193//33
f 193//102 253//102 254//102
f 193//102 254//102 192//102
f 192//103 254//103 255//103
f 192//103 255//103 191//103
f 191//104 255//104 256//104
f 191//104 256//104 190//104
f 190//105 256//105 257//105
f 190//105 257//105 189//105
f 189//106 257//107 258//108
f 189//106 258//108 188//107
f 188//109 258//109 259//109
f 188//109 259//109 187//109
f 187//110 259//110 260//110
f 187//110 260//110 186//110
f 186//111 260//111 261//111
f 186//111 261//111 225//111
f 225//112 261//112 262//112
f 225//112 262//112 224//112
f 224//113 262//113 263//113
f 224//113 263//113 223//113
f 223//114 263//114 264//114
f 223//114 264//114 222//114
f 222//115 264//115 265//115
f 222//115 265//115 221//115
f 221//116 265//116 266//116
f 221//116 266//116 220//116
f 220//117 266//117 267//117
f 220//117 267//117 219//117
f 219//118 267//118 268//118
f 219//118 268//118 218//118
f 218//119 268//119 269//119
f 218//119 269//119 217//119
f 217//120 269//120 270//120
f 217//120 270//120 216//120
f 216//121 270//121 271//121
f 216//121 271//121 215//121
f 215//122 271//122 272//122
f 215//122 272//122 214//122
f 214//123 272//123 273//123
f 214//123 273//123 213//123
f 213//124 273//124 274//124
f 213//124 274//124 212//124
f 212//125 274//125 275//125
f 212//125 275//125 211//125
f 211//126 275//126 276//126
f 211//126 276//126 210//126
f 210//127 276//127 277//127
f 210//127 277//127 209//127
f 209//128 277//128 278//128
f 209//128 278//128 208//128
f 208//129 278//130 279//129
f 208//129 279//129 207//130
f 207//131 279//131 280//131
f 207//131 280//131 206//131
f 206//68 280//69 226//68
f 281//67 242//67 241//67
f 262//67 261//67 282//67
f 266//67 265//67 282//67
f 231//67 230//67 283//67
f 242//67 281//67 243//67
f 243//67 281//67 282//67
f 243//67 282//67 244//67
f 271//67 270//67 282//67
f 282//67 270//67 269//67
f 265//67 264//67 282//67
f 282//67 264//67 263//67
f 282//67 263//67 262//67
f 269//67 268//67 282//67
f 282//67 268//67 267//67
f 282//67 267//67 266//67
f 230//67 229//67 283//67
f 283//67 229//67 228//67
f 283//67 228//67 227//67
f 278//67 277//67 284//67
f 284//67 277//67 276//67
f 284//67 276//67 275//67
f 241//67 240//67 281//67
f 281//67 240//67 239//67
f 281//67 239//67 238//67
f 253//67 282//67 254//67
f 254//67 282//67 255//67
f 275//67 274//67 284//67
f 284//67 274//67 273//67
f 284//67 273//67 282//67
f 282//67 273//67 272//67
f 282//67 272//67 271//67
f 227//67 226//67 283//67
f 283//67 226//67 280//67
f 283//67 280//67 284//67
f 284//67 280//67 279//67
f 284//67 279//67 278//67
f 261//67 260//67 282//67
f 282//67 260//67 259//67
f 282//67 259//67 258//67
f 258//67 257//67 282//67
f 282//67 257//67 256//67
f 282//67 256//67 255//67
f 253//67 252//67 282//67
f 282//67 252//67 251//67
f 282//67 251//67 250//67
f 238//67 237//67 281//67
f 281//67 237//67 236//67
f 281//67 236//67 235//67
f 235//67 234//67 281//67
f 281//67 234//67 233//67
f 281//67 233//67 283//67
f 283//67 233//67 232//67
f 283//67 232//67 231//67
f 250//67 249//67 282//67
f 282//67 249//67 248//67
f 282//67 248//67 247//67
f 247//67 246//67 282//67
f 282//67 246//67 245//67
f 282//67 245//67 244//67
f 285//1 286//1 287//1
f 288//1 289//1 287//1
f 287//1 289//1 290//1
f 287//1 290//1 285//1
f 291//1 292//1 287//1
f 287//1 292//1 293//1
f 287//1 293//1 288//1
f 294//1 295//1 287//1
f 287//1 295//1 296//1
f 287//1 296//1 291//1
f 297//1 298//1 287//1
f 287//1 298//1 299//1
f 287//1 299//1 294//1
f 300//1 301//1 287//1
f 287//1 301//1 302//1
f 287//1 302//1 297//1
f 303//1 304//1 287//1
f 287//1 304//1 305//1
f 287//1 305//1 300//1
f 306//1 307//1 287//1
f 287//1 307//1 308//1
f 287//1 308//1 303//1
f 309//1 310//1 287//1
f 287//1 310//1 311//1
f 287//1 311//1 306//1
f 312//1 313//1 287//1
f 287//1 313//1 314//1
f 287//1 314//1 309//1
f 315//1 316//1 287//1
f 287//1 316//1 317//1
f 287//1 317//1 312//1
f 318//1 319//1 287//1
f 287//1 319//1 320//1
f 287//1 320//1 315//1
f 321//1 322//1 287//1
f 287//1 322//1 323//1
f 287//1 323//1 318//1
f 324//1 325//1 287//1
f 287//1 325//1 326//1
f 287//1 326//1 321//1
f 327//1 328//1 287//1
f 287//1 328//1 329//1
f 287//1 329//1 324//1
f 330//1 331//1 287//1
f 287//1 331//1 332//1
f 287//1 332//1 327//1
f 333//1 334//1 287//1
f 287//1 334//1 335//1
f 287//1 335//1 330//1
f 286//1 336//1 287//1
f 287//1 336//1 337//1
f 287//1 337//1 333//1
f 285//132 107//133 286//132
f 286//134 107//134 109//134
f 286//134 109//134 336//134
f 336//135 109//135 16//135
f 336//135 16//135 337//135
f 337//136 16//137 18//137
f 337//136 18//137 333//136
f 333//138 18//138 20//138
f 333//138 20//138 334//139
f 334//140 20//140 22//140
f 334//140 22//140 335//140
f 335//141 22//141 24//141
f 335//141 24//141 330//141
f 330//142 24//142 26//142
f 330//142 26//142 331//142
f 331//143 26//143 28//143
f 331//143 28//143 332//143
f 332//144 28//145 30//146
f 332//144 30//146 327//145
f 327//147 30//147 32//147
f 327//147 32//147 328//147
f 328//148 32//148 84//148
f 328//148 84//148 329//148
f 329//149 84//149 86//149
f 329//149 86//149 324//149
f 324//150 86//150 88//150
f 324//150 88//150 325//150
f 325//151 88//151 90//151
f 325//151 90//151 326//151
f 326//152 90//153 92//153
f 326//152 92//153 321//152
f 321//154 92//155 94//155
f 321//154 94//155 322//156
f 322//157 94//157 65//157
f 322//157 65//157 323//157
f 323//158 65//159 67//159
f 323//158 67//159 318//159
f 318//160 67//160 69//160
f 318//160 69//160 319//160
f 319//161 69//161 71//161
f 319//161 71//161 320//161
f 320//162 71//163 73//164
f 320//162 73//164 315//165
f 315//166 73//167 75//168
f 315//166 75//168 316//166
f 316//169 75//169 77//169
f 316//169 77//169 317//169
f 317//170 77//171 79//171
f 317//170 79//171 312//170
f 312//172 79//172 33//172
f 312//172 33//172 313//172
f 313//173 33//173 35//173
f 313//173 35//173 314//173
f 314//174 35//175 37//175
f 314//174 37//175 309//176
f 309//177 37//177 39//177
f 309//177 39//177 310//177
f 310//178 39//179 41//180
f 310//178 41//180 311//178
f 311//181 41//182 43//183
f 311//181 43//183 306//181
f 306//184 43//184 45//184
f 306//184 45//184 307//184
f 307//185 45//185 1//185
f 307//185 1//185 308//185
f 308//186 1//186 3//186
f 308//186 3//186 303//186
f 303//187 3//187 5//187
f 303//187 5//187 304//187
f 304//188 5//188 7//189
f 304//188 7//189 305//189
f 305//190 7//191 9//191
f 305//190 9//191 300//192
f 300//193 9//193 11//193
f 300//193 11//193 301//193
f 301//194 11//194 13//194
f 301//194 13//194 302//194
f 302//195 13//195 15//195
f 302//195 15//195 297//195
f 297//196 15//196 50//196
f 297//196 50//196 298//196
f 298//197 50//197 52//197
f 298//197 52//197 299//197
f 299//198 52//198 54//199
f 299//198 54//199 294//198
f 294//200 54//200 56//200
f 294//200 56//200 295//200
f 295//201 56//201 58//201
f 295//201 58//201 296//201
f 296//202 58//202 60//202
f 296//202 60//202 291//202
f 291//203 60//203 62//203
f 291//203 62//203 292//203
f 292//204 62//204 64//204
f 292//204 64//204 293//204
f 293//205 64//206 99//207
f 293//205 99//207 288//206
f 288//208 99//208 101//209
f 288//208 101//209 289//208
f 289//210 101//210 103//210
f 289//210 103//210 290//210
f 290//211 103//212 105//213
f 290//211 105//213 285//213
f 285//132 105//132 107//133
f 338//214 339//214 283//214
f 283//214 339//214 281//214
f 339//215 340//215 281//215
f 281//215 340//215 282//215
f 340//216 341//216 282//216
f 282//216 341//216 284//216
f 341//217 338//217 284//217
f 284//217 338//217 283//217
f 342//67 338//67 343//67
f 343//67 338//67 341//67
f 343//67 341//67 344//67
f 344//67 341//67 340//67
f 344//67 340//67 345//67
f 345//67 340//67 339//67
f 345//67 339//67 342//67
f 342//67 339//67 338//67
f 344//214 346//214 343//214
f 343//214 346//214 347//214
f 343//215 347//215 342//215
f 342//215 347//215 348//215
f 342//216 348//216 345//216
f 345//216 348//216 349//216
f 345//217 349//217 344//217
f 344//217 349//217 346//217
f 349//67 348//67 346//67
f 346//67 348//67 347//67
